<svg xmlns="http://www.w3.org/2000/svg" width="24" height="23" viewBox="0 0 24 23" fill="none">
  <g clip-path="url(#clip0_0_163)">
    <path d="M9.29943 17.1475C7.69815 17.1475 6.39542 18.3935 6.39542 19.9252C6.39542 21.4568 7.69815 22.7029 9.29943 22.7029C10.9007 22.7029 12.2034 21.4568 12.2034 19.9252C12.2034 18.3935 10.9007 17.1475 9.29943 17.1475ZM9.29943 21.0363C8.6588 21.0363 8.13784 20.538 8.13784 19.9252C8.13784 19.3124 8.6588 18.8141 9.29943 18.8141C9.93974 18.8141 10.461 19.3124 10.461 19.9252C10.461 20.5379 9.94005 21.0363 9.29943 21.0363Z" fill="white"/>
    <path d="M17.8953 17.1475C16.294 17.1475 14.9913 18.3935 14.9913 19.9252C14.9913 21.4568 16.294 22.7029 17.8953 22.7029C19.4966 22.7029 20.7993 21.4568 20.7993 19.9252C20.7993 18.3935 19.4966 17.1475 17.8953 17.1475ZM17.8953 21.0363C17.2547 21.0363 16.7337 20.538 16.7337 19.9252C16.7337 19.3124 17.2547 18.8141 17.8953 18.8141C18.5359 18.8141 19.0569 19.3124 19.0569 19.9252C19.0569 20.5379 18.5359 21.0363 17.8953 21.0363Z" fill="white"/>
    <path d="M22.9331 6.12894C22.7675 5.93004 22.5166 5.81424 22.2512 5.81424H6.99656L6.20464 1.98596C6.13523 1.65068 5.85878 1.38986 5.50709 1.3282L2.02229 0.717098C1.5481 0.633481 1.09506 0.933789 1.00823 1.38655C0.921395 1.83931 1.23472 2.27346 1.70811 2.35652L4.61037 2.8654L7.16704 15.226C7.24776 15.6163 7.60583 15.8977 8.02167 15.8977H20.2185C20.6241 15.8977 20.9758 15.6302 21.0673 15.2516L23.1001 6.83505C23.1599 6.58755 23.0983 6.32754 22.9331 6.12894ZM19.5255 14.231H8.73719L7.34124 7.48116H21.1555L19.5255 14.231Z" fill="white"/>
  </g>
  <defs>
    <clipPath id="clip0_0_163">
      <rect width="23" height="22" fill="white" transform="translate(0.558105 0.703125)"/>
    </clipPath>
  </defs>
</svg>