<svg xmlns="http://www.w3.org/2000/svg" width="20" height="21" viewBox="0 0 20 21" fill="none">
  <g clip-path="url(#clip0_0_154)">
    <path d="M17.0706 13.632C16.0358 12.5429 14.8043 11.7366 13.4605 11.2485C14.8997 10.2051 15.8452 8.45891 15.8452 6.48438C15.8452 3.2966 13.3814 0.703125 10.353 0.703125C7.32464 0.703125 4.86084 3.2966 4.86084 6.48438C4.86084 8.45891 5.80635 10.2051 7.24556 11.2485C5.90183 11.7366 4.67025 12.5429 3.63553 13.632C1.84121 15.5208 0.853027 18.032 0.853027 20.7031H2.3374C2.3374 16.0507 5.93319 12.2656 10.353 12.2656C14.7729 12.2656 18.3687 16.0507 18.3687 20.7031H19.853C19.853 18.032 18.8648 15.5208 17.0706 13.632ZM10.353 10.7031C8.14313 10.7031 6.34521 8.81063 6.34521 6.48438C6.34521 4.15813 8.14313 2.26562 10.353 2.26562C12.5629 2.26562 14.3608 4.15813 14.3608 6.48438C14.3608 8.81063 12.5629 10.7031 10.353 10.7031Z" fill="white"/>
  </g>
  <defs>
    <clipPath id="clip0_0_154">
      <rect width="19" height="20" fill="white" transform="translate(0.853027 0.703125)"/>
    </clipPath>
  </defs>
</svg>